<?xml version="1.0" encoding="UTF-8"?>
<svg version="1.1" xmlns="http://www.w3.org/2000/svg" width="192" height="192">
<path d="M0 0 C3.40353022 1.47122616 5.61255749 3.36942513 8.21777344 5.99072266 C9.03832214 6.81142242 9.85887085 7.63212219 10.70428467 8.47769165 C11.58046448 9.36419403 12.45664429 10.25069641 13.359375 11.1640625 C14.26375305 12.07127045 15.1681311 12.97847839 16.09991455 13.91317749 C18.49796458 16.31884419 20.88994618 18.73045736 23.28070068 21.14337158 C25.72385171 23.60702344 28.17271206 26.06498577 30.62109375 28.5234375 C35.41933788 33.34373573 40.21182732 38.16969843 45 43 C43.16307611 47.00374431 40.50882084 49.71957934 37.375 52.75 C36.859375 53.25660156 36.34375 53.76320312 35.8125 54.28515625 C34.54616661 55.52803902 33.2736856 56.76465276 32 58 C36.11329871 62.90473901 40.38542461 67.5219528 44.9296875 72.02734375 C45.56488312 72.66112442 46.20007874 73.29490509 46.85452271 73.94789124 C48.85898716 75.94681406 50.86692214 77.94220784 52.875 79.9375 C54.24502389 81.30250133 55.61481774 82.6677336 56.984375 84.03320312 C60.32026543 87.35814211 63.65927036 90.67992353 67 94 C63.28984473 98.4266071 59.47851707 102.64214876 55.3828125 106.71484375 C54.88079315 107.21544815 54.3787738 107.71605255 53.86154175 108.23182678 C52.28506329 109.80278598 50.70511427 111.37019877 49.125 112.9375 C48.04403726 114.01343727 46.96330617 115.08960731 45.8828125 116.16601562 C43.25787359 118.78003292 40.62981372 121.39088596 38 124 C35.18121988 122.71825282 33.14758504 121.38992385 30.984375 119.1796875 C30.19160156 118.37724609 30.19160156 118.37724609 29.3828125 117.55859375 C28.84398437 117.00300781 28.30515625 116.44742188 27.75 115.875 C27.19570312 115.31167969 26.64140625 114.74835938 26.0703125 114.16796875 C24.70895515 112.78313972 23.35385141 111.39216796 22 110 C26.11619836 105.08064098 30.40410362 100.47352044 35 96 C33.54254576 92.63664406 31.68882146 90.45465995 29.0859375 87.890625 C28.32539063 87.13652344 27.56484375 86.38242188 26.78125 85.60546875 C25.9871875 84.82816406 25.193125 84.05085938 24.375 83.25 C23.57320313 82.45722656 22.77140625 81.66445312 21.9453125 80.84765625 C19.96797154 78.89385507 17.98611091 76.94487897 16 75 C12.2341894 78.18031122 8.51561011 81.35141825 5.0625 84.875 C4.18271484 85.76832031 4.18271484 85.76832031 3.28515625 86.6796875 C2.86105469 87.11539063 2.43695313 87.55109375 2 88 C-1.40353022 86.52877384 -3.61255749 84.63057487 -6.21777344 82.00927734 C-7.03832214 81.18857758 -7.85887085 80.36787781 -8.70428467 79.52230835 C-9.58046448 78.63580597 -10.45664429 77.74930359 -11.359375 76.8359375 C-12.26375305 75.92872955 -13.1681311 75.02152161 -14.09991455 74.08682251 C-16.49796458 71.68115581 -18.88994618 69.26954264 -21.28070068 66.85662842 C-23.72385171 64.39297656 -26.17271206 61.93501423 -28.62109375 59.4765625 C-33.41933788 54.65626427 -38.21182732 49.83030157 -43 45 C-41.52877384 41.59646978 -39.63057487 39.38744251 -37.00927734 36.78222656 C-35.77822769 35.5514035 -35.77822769 35.5514035 -34.52230835 34.29571533 C-33.63580597 33.41953552 -32.74930359 32.54335571 -31.8359375 31.640625 C-30.92872955 30.73624695 -30.02152161 29.8318689 -29.08682251 28.90008545 C-26.68115581 26.50203542 -24.26954264 24.11005382 -21.85662842 21.71929932 C-19.39297656 19.27614829 -16.93501423 16.82728794 -14.4765625 14.37890625 C-9.65626427 9.58066212 -4.83030157 4.78817268 0 0 Z M-2.8203125 33.625 C-3.92696886 34.74498957 -5.0283192 35.87024066 -6.125 37 C-6.96998047 37.85851563 -6.96998047 37.85851563 -7.83203125 38.734375 C-9.22586268 40.15183069 -10.61351636 41.57535626 -12 43 C-10.41332422 46.90285767 -7.86649519 49.33520982 -4.875 52.25 C-3.96492188 53.14203125 -3.05484375 54.0340625 -2.1171875 54.953125 C-1.41851562 55.62859375 -0.71984375 56.3040625 0 57 C3.90285767 55.41332422 6.33520982 52.86649519 9.25 49.875 C10.14203125 48.96492188 11.0340625 48.05484375 11.953125 47.1171875 C12.62859375 46.41851562 13.3040625 45.71984375 14 45 C12.41438362 41.14406926 9.93490046 38.66783709 7 35.75 C6.113125 34.85796875 5.22625 33.9659375 4.3125 33.046875 C0.84595169 29.97851129 0.60828661 30.4338385 -2.8203125 33.625 Z " fill="#AD3D71" transform="translate(105,5)"/>
<path d="M0 0 C4.1413833 3.4808174 8.13790851 7.01695326 11.9375 10.875 C12.70964844 11.65617187 13.48179688 12.43734375 14.27734375 13.2421875 C14.84582031 13.82226562 15.41429687 14.40234375 16 15 C11.88380164 19.91935902 7.59589638 24.52647956 3 29 C4.45745424 32.36335594 6.31117854 34.54534005 8.9140625 37.109375 C9.67460938 37.86347656 10.43515625 38.61757812 11.21875 39.39453125 C12.0128125 40.17183594 12.806875 40.94914062 13.625 41.75 C14.42679688 42.54277344 15.22859375 43.33554688 16.0546875 44.15234375 C18.03202846 46.10614493 20.01388909 48.05512103 22 50 C25.7658106 46.81968878 29.48438989 43.64858175 32.9375 40.125 C33.52402344 39.52945313 34.11054687 38.93390625 34.71484375 38.3203125 C35.13894531 37.88460937 35.56304687 37.44890625 36 37 C39.40353022 38.47122616 41.61255749 40.36942513 44.21777344 42.99072266 C45.03832214 43.81142242 45.85887085 44.63212219 46.70428467 45.47769165 C47.58046448 46.36419403 48.45664429 47.25069641 49.359375 48.1640625 C50.26375305 49.07127045 51.1681311 49.97847839 52.09991455 50.91317749 C54.49796458 53.31884419 56.88994618 55.73045736 59.28070068 58.14337158 C61.72385171 60.60702344 64.17271206 63.06498577 66.62109375 65.5234375 C71.41933788 70.34373573 76.21182732 75.16969843 81 80 C76.37508621 85.55439924 71.44639036 90.68525669 66.3203125 95.77734375 C65.50754852 96.58869278 64.69478455 97.40004181 63.85739136 98.23597717 C61.28228262 100.8055259 58.7037038 103.37155968 56.125 105.9375 C54.36956054 107.68791929 52.61434983 109.438568 50.859375 111.18945312 C46.57555918 115.46229302 42.28889528 119.73225899 38 124 C34.59646978 122.52877384 32.38744251 120.63057487 29.78222656 118.00927734 C28.96167786 117.18857758 28.14112915 116.36787781 27.29571533 115.52230835 C26.41953552 114.63580597 25.54335571 113.74930359 24.640625 112.8359375 C23.73624695 111.92872955 22.8318689 111.02152161 21.90008545 110.08682251 C19.50203542 107.68115581 17.11005382 105.26954264 14.71929932 102.85662842 C12.27614829 100.39297656 9.82728794 97.93501423 7.37890625 95.4765625 C2.58066212 90.65626427 -2.21182732 85.83030157 -7 81 C-6.0449028 79.87879843 -5.08882049 78.75843599 -4.13232422 77.63842773 C-3.6000119 77.01443588 -3.06769958 76.39044403 -2.51925659 75.74754333 C-0.79809702 73.76775864 1.001573 71.89845846 2.875 70.0625 C3.47054687 69.47597656 4.06609375 68.88945312 4.6796875 68.28515625 C5.11539063 67.86105469 5.55109375 67.43695313 6 67 C4.63886987 63.95418514 3.10669904 61.86160974 0.74365234 59.51660156 C0.08311859 58.85621887 -0.57741516 58.19583618 -1.25796509 57.51544189 C-1.96947723 56.81425232 -2.68098938 56.11306274 -3.4140625 55.390625 C-4.14370209 54.66381531 -4.87334167 53.93700562 -5.62509155 53.18817139 C-7.9537388 50.87070802 -10.28924826 48.5603005 -12.625 46.25 C-14.20618653 44.67884556 -15.78692125 43.10723629 -17.3671875 41.53515625 C-21.2395669 37.68481347 -25.11760171 33.84023883 -29 30 C-25.28984473 25.5733929 -21.47851707 21.35785124 -17.3828125 17.28515625 C-16.88079315 16.78455185 -16.3787738 16.28394745 -15.86154175 15.76817322 C-14.28506329 14.19721402 -12.70511427 12.62980123 -11.125 11.0625 C-10.04403726 9.98656273 -8.96330617 8.91039269 -7.8828125 7.83398438 C-5.25787359 5.21996708 -2.62981372 2.60911404 0 0 Z M34.57958984 68.19335938 C33.77835693 69.01030273 33.77835693 69.01030273 32.9609375 69.84375 C32.38085938 70.43027344 31.80078125 71.01679688 31.203125 71.62109375 C30.59984375 72.24113281 29.9965625 72.86117187 29.375 73.5 C28.76398438 74.12003906 28.15296875 74.74007812 27.5234375 75.37890625 C26.01112281 76.91485086 24.50497886 78.45686675 23 80 C27.11619836 84.91935902 31.40410362 89.52647956 36 94 C40.07376031 92.38989473 42.76507069 89.46177729 45.75 86.375 C46.25660156 85.859375 46.76320313 85.34375 47.28515625 84.8125 C48.52803902 83.54616661 49.76465276 82.2736856 51 81 C44.89053942 73.62534578 44.89053942 73.62534578 38 67 C35.94602023 66.78558001 35.94602023 66.78558001 34.57958984 68.19335938 Z " fill="#7325BC" transform="translate(47,63)"/>
</svg>
