<svg width="232" height="69" viewBox="0 0 232 69" fill="none" xmlns="http://www.w3.org/2000/svg">
<path fill-rule="evenodd" clip-rule="evenodd" d="M75.2653 54.7817L78.5175 46.7399H96.0203L99.2726 54.7817H111.454L93.1229 13.3899H81.5923L63.3208 54.7817H75.2653ZM87.2689 24.8613L92.5907 38.1067H81.9471L87.2689 24.8613Z" fill="#222222"/>
<path fill-rule="evenodd" clip-rule="evenodd" d="M142.937 15.2821C140.178 14.0206 136.925 13.3899 133.181 13.3899H114.259V54.7817H125.967V43.9607H133.181C136.925 43.9607 140.178 43.3497 142.937 42.1276C145.697 40.8662 147.825 39.0923 149.323 36.8058C150.821 34.5194 151.57 31.8191 151.57 28.7049C151.57 25.5906 150.821 22.8903 149.323 20.6039C147.825 18.2781 145.697 16.5041 142.937 15.2821ZM137.911 33.1988C136.689 34.2238 134.876 34.7362 132.471 34.7362H125.967V22.6144H132.471C134.876 22.6144 136.689 23.1465 137.911 24.2109C139.133 25.2753 139.744 26.7732 139.744 28.7049C139.744 30.6365 139.133 32.1345 137.911 33.1988Z" fill="#222222"/>
<path d="M187.167 45.7347V54.7817H153.936V13.3899H186.399V22.4369H165.525V45.7347H187.167Z" fill="#222222"/>
<path d="M209.748 41.9502L218.322 54.7817H231.804L216.43 33.3762L230.858 13.3899H218.204L210.044 25.3344L201.765 13.3899H188.579L203.007 33.8493L187.929 54.7817H201.292L209.748 41.9502Z" fill="#222222"/>
<path d="M184.199 27.8107H171.827V39.696H184.199V27.8107Z" fill="#222222"/>
<path fill-rule="evenodd" clip-rule="evenodd" d="M57.2643 35.4494L46.3568 46.3568L40.903 40.9031L46.3568 35.4493L38.1762 27.2687L32.7224 32.7225H32.7224L27.2687 27.2687L27.2687 27.2687L16.3612 16.3612L21.8149 10.9075L27.2687 5.45374L32.7225 0L38.1762 5.45375L49.0837 16.3612L43.6299 21.815L57.2642 35.4493L57.2643 35.4494ZM38.1762 16.3612L32.7224 21.815L27.2687 16.3612L32.7225 10.9075L38.1762 16.3612ZM0 32.7224L10.9075 21.8149L16.3612 27.2687L10.9075 32.7224L19.0881 40.903L24.5418 35.4493H24.5419L29.9956 40.903L40.9031 51.8105L35.4493 57.2643L29.9956 62.718L29.9956 62.718L24.5418 68.1718L8.1806 51.8106L8.18064 51.8105L13.6344 46.3568L5.45374 38.1762L0 32.7224ZM19.0881 51.8106L24.5419 46.3568L29.9956 51.8105L24.5418 57.2643L19.0881 51.8106Z" fill="url(#paint0_linear)"/>
<defs>
<linearGradient id="paint0_linear" x1="28.6321" y1="0" x2="28.6321" y2="68.1718" gradientUnits="userSpaceOnUse">
<stop stop-color="#D94D1D"/>
<stop offset="0.520833" stop-color="#9234AA"/>
<stop offset="1" stop-color="#370AE7"/>
</linearGradient>
</defs>
</svg>
